<svg width="1302" height="357" viewBox="0 0 1302 357" fill="none" xmlns="http://www.w3.org/2000/svg">
    <path
        d="M221.6 81.2V90.6C221.6 91.9333 221.733 92.8667 222 93.4C222.267 93.8 223 94 224.2 94H239.8C241.133 94 241.867 94.2667 242 94.8C242.267 95.2 242.4 96.0667 242.4 97.4C242.4 98.6 242.2 99.4667 241.8 100C241.533 100.533 240.867 100.8 239.8 100.8H224.2C223 100.8 222.267 101.067 222 101.6C221.733 102 221.6 102.867 221.6 104.2V169.8C221.6 172.6 222.333 174.533 223.8 175.6C225.267 176.667 226.8 177.333 228.4 177.6C230.133 177.867 231.733 178.067 233.2 178.2C234.667 178.333 235.4 179 235.4 180.2C235.4 181.533 234.333 182.2 232.2 182.2C230.467 182.2 228.2 182.067 225.4 181.8C222.733 181.533 219.6 181.4 216 181.4C213.067 181.4 210.4 181.533 208 181.8C205.733 182.067 203.8 182.2 202.2 182.2C201 182.2 200.133 182.133 199.6 182C199.067 181.733 198.8 181.133 198.8 180.2C198.8 179.133 199.4 178.533 200.6 178.4C201.8 178.133 203.133 177.8 204.6 177.4C206.067 177 207.4 176.333 208.6 175.4C209.8 174.333 210.4 172.467 210.4 169.8V104.2C210.4 102.867 210.267 102 210 101.6C209.733 101.067 209 100.8 207.8 100.8H204C202.533 100.8 201.8 100.133 201.8 98.8C201.8 98.1333 201.933 97.6667 202.2 97.4C202.6 97.1333 203.133 96.8 203.8 96.4L208 93.8C208.8 93.2667 209.4 92.8 209.8 92.4C210.2 91.8667 210.467 91 210.6 89.8L211.2 80C211.467 75.3333 211.933 70.9333 212.6 66.8C213.267 62.5333 215.267 58.3333 218.6 54.2C224.6 46.8667 231.2 43.2 238.4 43.2C242.933 43.2 246.467 43.9333 249 45.4C251.667 46.7333 253 48.5333 253 50.8C253 53.6 252.467 56.2 251.4 58.6C250.467 60.8667 249.467 62 248.4 62C247.333 62 246.2 61.4 245 60.2C243.933 58.8667 242.8 57.4667 241.6 56C240.4 54.5333 239.133 53.2 237.8 52C236.467 50.6667 234.933 50 233.2 50C225.467 50 221.6 60.4 221.6 81.2ZM287.117 113V163.2C287.117 171.467 288.917 175.6 292.517 175.6C293.984 175.6 295.317 174.867 296.517 173.4C297.851 171.933 298.917 171.2 299.717 171.2C300.651 171.2 301.117 171.667 301.117 172.6C301.117 173.667 300.517 174.933 299.317 176.4C298.251 177.733 296.917 179.067 295.317 180.4C293.717 181.733 291.984 182.8 290.117 183.6C288.384 184.533 286.851 185 285.517 185C282.851 185 280.784 184 279.317 182C277.984 179.867 276.717 176.467 275.517 171.8H274.717C269.651 176.067 265.117 179.467 261.117 182C257.251 184.533 253.184 185.8 248.917 185.8C244.117 185.8 240.384 184.4 237.717 181.6C235.051 178.667 233.717 174.8 233.717 170C233.717 166.267 234.584 162.8 236.317 159.6C238.051 156.267 240.651 153.067 244.117 150C247.717 146.8 252.117 143.533 257.317 140.2C262.517 136.867 268.517 133.267 275.317 129.4V111.8C275.317 105.667 274.651 101.267 273.317 98.6C272.117 95.9333 269.451 94.6 265.317 94.6C261.851 94.6 258.584 95.8 255.517 98.2C252.451 100.6 250.317 103.467 249.117 106.8C247.651 110.933 246.184 114.467 244.717 117.4C243.251 120.2 240.651 121.6 236.917 121.6C235.984 121.6 235.184 121.333 234.517 120.8C233.851 120.133 233.517 119.267 233.517 118.2C233.517 115.8 234.384 113 236.117 109.8C237.851 106.6 240.317 103.533 243.517 100.6C246.717 97.6667 250.517 95.2 254.917 93.2C259.317 91.2 264.117 90.2 269.317 90.2C273.451 90.2 276.717 90.7333 279.117 91.8C281.517 92.8667 283.317 94.4 284.517 96.4C285.717 98.4 286.451 100.8 286.717 103.6C286.984 106.4 287.117 109.533 287.117 113ZM275.517 137.4C275.517 136.067 275.117 135.4 274.317 135.4C273.917 135.4 273.251 135.667 272.317 136.2L266.317 139.6C252.717 147.467 245.917 155.8 245.917 164.6C245.917 168.333 246.851 171.333 248.717 173.6C250.584 175.733 253.184 176.8 256.517 176.8C258.517 176.8 260.584 176.333 262.717 175.4C264.984 174.467 267.051 173.133 268.917 171.4C270.917 169.533 272.517 167.333 273.717 164.8C274.917 162.133 275.517 159.133 275.517 155.8V137.4ZM315.373 100.4V146.4C315.373 156.8 316.707 164.6 319.373 169.8C322.04 175 326.84 177.6 333.773 177.6C340.973 177.6 346.173 174.733 349.373 169C352.573 163.133 354.173 154.4 354.173 142.8V106.4C354.173 103.733 353.64 101.867 352.573 100.8C351.507 99.7333 350.307 99 348.973 98.6C347.64 98.2 346.44 97.9333 345.373 97.8C344.307 97.6667 343.773 97.0667 343.773 96C343.773 95.0667 343.907 94.5333 344.173 94.4C344.573 94.1333 345.107 94 345.773 94C346.307 94 347.173 94.0667 348.373 94.2C349.573 94.3333 351.173 94.4 353.173 94.4C355.44 94.4 357.373 94.3333 358.973 94.2C360.573 94.0667 361.707 94 362.373 94C363.84 94 364.707 94.4 364.973 95.2C365.24 95.8667 365.373 97.6 365.373 100.4V166.2C365.373 169 365.773 170.867 366.573 171.8C367.373 172.733 368.24 173.267 369.173 173.4C370.24 173.533 371.173 173.6 371.973 173.6C372.907 173.6 373.373 174.067 373.373 175C373.373 176.067 372.64 176.933 371.173 177.6C369.707 178.133 367.973 178.933 365.973 180C363.573 181.333 361.64 182.6 360.173 183.8C358.707 185.133 357.44 185.8 356.373 185.8C355.573 185.8 355.04 185.333 354.773 184.4C354.64 183.6 354.573 182.467 354.573 181V171.6C354.573 170 354.373 169.2 353.973 169.2C353.44 169.2 352.64 170.2 351.573 172.2C350.507 174.067 348.64 176.133 345.973 178.4C343.307 180.8 340.573 182.6 337.773 183.8C335.107 185.133 332.107 185.8 328.773 185.8C324.24 185.8 320.107 184.667 316.373 182.4C312.773 180.133 310.04 177 308.173 173C306.307 169.4 305.173 165.667 304.773 161.8C304.373 157.933 304.173 153.867 304.173 149.6V106.4C304.173 103.733 303.64 101.867 302.573 100.8C301.507 99.7333 300.307 99 298.973 98.6C297.64 98.2 296.44 97.9333 295.373 97.8C294.307 97.6667 293.773 97.0667 293.773 96C293.773 95.0667 293.907 94.5333 294.173 94.4C294.573 94.1333 295.107 94 295.773 94C296.04 94 296.907 94.0667 298.373 94.2C299.973 94.3333 302.173 94.4 304.973 94.4C306.44 94.4 307.707 94.3333 308.773 94.2C309.973 94.0667 311.107 94 312.173 94C313.64 94 314.507 94.3333 314.773 95C315.173 95.6667 315.373 97.4667 315.373 100.4ZM402.813 90.4C406.946 90.4 410.146 90.6667 412.413 91.2C414.813 91.6 416.546 92.2667 417.613 93.2C418.813 94 419.546 95 419.813 96.2C420.079 97.2667 420.213 98.4667 420.213 99.8V108C420.213 110.667 419.613 112 418.413 112C417.213 112 416.546 111.2 416.413 109.6C416.279 107.867 415.346 105.533 413.613 102.6C411.879 99.6667 409.746 97.4667 407.213 96C404.679 94.5333 402.013 93.8 399.213 93.8C395.346 93.8 392.079 95.2 389.413 98C386.746 100.667 385.413 104.2 385.413 108.6C385.413 113.267 386.746 116.933 389.413 119.6C392.079 122.133 396.079 124.733 401.413 127.4C404.879 129.133 408.013 130.8 410.813 132.4C413.613 134 416.013 135.8 418.013 137.8C420.013 139.8 421.546 142.2 422.613 145C423.813 147.667 424.413 151.067 424.413 155.2C424.413 164.667 421.813 172.133 416.613 177.6C411.413 183.067 404.079 185.8 394.613 185.8C391.946 185.8 389.279 185.533 386.613 185C384.079 184.467 381.746 183.667 379.613 182.6C377.613 181.667 375.946 180.6 374.613 179.4C373.279 178.067 372.613 176.6 372.613 175C372.613 173.933 372.679 172 372.813 169.2C372.946 166.267 373.013 162.467 373.013 157.8C373.013 155.533 373.746 154.4 375.213 154.4C376.413 154.4 377.146 155.467 377.413 157.6C377.813 159.6 378.613 162.933 379.813 167.6C381.146 172.4 382.946 176.067 385.213 178.6C387.613 181 391.279 182.2 396.213 182.2C401.813 182.2 406.279 180.4 409.613 176.8C413.079 173.067 414.813 168.2 414.813 162.2C414.813 156.867 413.346 152.733 410.413 149.8C407.479 146.733 403.013 143.8 397.013 141C389.679 137.533 384.213 134 380.613 130.4C377.146 126.8 375.413 122.067 375.413 116.2C375.413 108.6 377.813 102.4 382.613 97.6C387.413 92.8 394.146 90.4 402.813 90.4ZM454.875 90.4C459.008 90.4 462.208 90.6667 464.475 91.2C466.875 91.6 468.608 92.2667 469.675 93.2C470.875 94 471.608 95 471.875 96.2C472.142 97.2667 472.275 98.4667 472.275 99.8V108C472.275 110.667 471.675 112 470.475 112C469.275 112 468.608 111.2 468.475 109.6C468.342 107.867 467.408 105.533 465.675 102.6C463.942 99.6667 461.808 97.4667 459.275 96C456.742 94.5333 454.075 93.8 451.275 93.8C447.408 93.8 444.142 95.2 441.475 98C438.808 100.667 437.475 104.2 437.475 108.6C437.475 113.267 438.808 116.933 441.475 119.6C444.142 122.133 448.142 124.733 453.475 127.4C456.942 129.133 460.075 130.8 462.875 132.4C465.675 134 468.075 135.8 470.075 137.8C472.075 139.8 473.608 142.2 474.675 145C475.875 147.667 476.475 151.067 476.475 155.2C476.475 164.667 473.875 172.133 468.675 177.6C463.475 183.067 456.142 185.8 446.675 185.8C444.008 185.8 441.342 185.533 438.675 185C436.142 184.467 433.808 183.667 431.675 182.6C429.675 181.667 428.008 180.6 426.675 179.4C425.342 178.067 424.675 176.6 424.675 175C424.675 173.933 424.742 172 424.875 169.2C425.008 166.267 425.075 162.467 425.075 157.8C425.075 155.533 425.808 154.4 427.275 154.4C428.475 154.4 429.208 155.467 429.475 157.6C429.875 159.6 430.675 162.933 431.875 167.6C433.208 172.4 435.008 176.067 437.275 178.6C439.675 181 443.342 182.2 448.275 182.2C453.875 182.2 458.342 180.4 461.675 176.8C465.142 173.067 466.875 168.2 466.875 162.2C466.875 156.867 465.408 152.733 462.475 149.8C459.542 146.733 455.075 143.8 449.075 141C441.742 137.533 436.275 134 432.675 130.4C429.208 126.8 427.475 122.067 427.475 116.2C427.475 108.6 429.875 102.4 434.675 97.6C439.475 92.8 446.208 90.4 454.875 90.4ZM509.938 121C518.204 121 524.271 120.533 528.138 119.6C532.004 118.533 533.938 116.067 533.938 112.2C533.938 110.067 533.471 107.933 532.538 105.8C531.604 103.667 530.271 101.733 528.538 100C526.938 98.2667 525.004 96.8667 522.738 95.8C520.471 94.7333 518.071 94.2 515.538 94.2C512.338 94.2 509.271 95 506.338 96.6C503.404 98.2 500.804 100.2 498.538 102.6C496.404 105 494.671 107.667 493.338 110.6C492.004 113.533 491.338 116.4 491.338 119.2C491.338 119.6 491.538 120 491.938 120.4C492.338 120.8 492.871 121 493.538 121H509.938ZM540.938 125.8H493.338C491.604 125.8 490.538 126.4 490.138 127.6C489.738 128.667 489.538 130.867 489.538 134.2C489.538 140.867 490.271 146.8 491.738 152C493.338 157.2 495.471 161.6 498.138 165.2C500.938 168.8 504.204 171.6 507.938 173.6C511.804 175.467 516.004 176.4 520.538 176.4C524.671 176.4 528.138 175.733 530.938 174.4C533.871 173.067 536.271 171.6 538.138 170C540.004 168.4 541.471 166.933 542.538 165.6C543.604 164.267 544.338 163.6 544.738 163.6C545.671 163.6 546.138 164.133 546.138 165.2C546.138 166.667 545.404 168.6 543.938 171C542.471 173.267 540.338 175.533 537.538 177.8C534.871 179.933 531.538 181.8 527.538 183.4C523.671 185 519.338 185.8 514.538 185.8C509.071 185.8 504.004 184.667 499.338 182.4C494.804 180.133 490.871 176.933 487.538 172.8C484.204 168.667 481.604 163.667 479.738 157.8C478.004 151.933 477.138 145.4 477.138 138.2C477.138 130.867 478.204 124.267 480.338 118.4C482.471 112.4 485.338 107.333 488.938 103.2C492.538 99.0667 496.738 95.9333 501.538 93.8C506.338 91.5333 511.404 90.4 516.738 90.4C521.404 90.4 525.604 91.2667 529.338 93C533.071 94.7333 536.204 97.0667 538.738 100C541.404 102.8 543.404 106.133 544.738 110C546.204 113.733 546.938 117.6 546.938 121.6C546.938 123.067 546.471 124.133 545.538 124.8C544.738 125.467 543.204 125.8 540.938 125.8ZM575.211 90.4C579.344 90.4 582.544 90.6667 584.811 91.2C587.211 91.6 588.944 92.2667 590.011 93.2C591.211 94 591.944 95 592.211 96.2C592.478 97.2667 592.611 98.4667 592.611 99.8V108C592.611 110.667 592.011 112 590.811 112C589.611 112 588.944 111.2 588.811 109.6C588.678 107.867 587.744 105.533 586.011 102.6C584.278 99.6667 582.144 97.4667 579.611 96C577.078 94.5333 574.411 93.8 571.611 93.8C567.744 93.8 564.478 95.2 561.811 98C559.144 100.667 557.811 104.2 557.811 108.6C557.811 113.267 559.144 116.933 561.811 119.6C564.478 122.133 568.478 124.733 573.811 127.4C577.278 129.133 580.411 130.8 583.211 132.4C586.011 134 588.411 135.8 590.411 137.8C592.411 139.8 593.944 142.2 595.011 145C596.211 147.667 596.811 151.067 596.811 155.2C596.811 164.667 594.211 172.133 589.011 177.6C583.811 183.067 576.478 185.8 567.011 185.8C564.344 185.8 561.678 185.533 559.011 185C556.478 184.467 554.144 183.667 552.011 182.6C550.011 181.667 548.344 180.6 547.011 179.4C545.678 178.067 545.011 176.6 545.011 175C545.011 173.933 545.078 172 545.211 169.2C545.344 166.267 545.411 162.467 545.411 157.8C545.411 155.533 546.144 154.4 547.611 154.4C548.811 154.4 549.544 155.467 549.811 157.6C550.211 159.6 551.011 162.933 552.211 167.6C553.544 172.4 555.344 176.067 557.611 178.6C560.011 181 563.678 182.2 568.611 182.2C574.211 182.2 578.678 180.4 582.011 176.8C585.478 173.067 587.211 168.2 587.211 162.2C587.211 156.867 585.744 152.733 582.811 149.8C579.878 146.733 575.411 143.8 569.411 141C562.078 137.533 556.611 134 553.011 130.4C549.544 126.8 547.811 122.067 547.811 116.2C547.811 108.6 550.211 102.4 555.011 97.6C559.811 92.8 566.544 90.4 575.211 90.4ZM645.508 95.2V104.6C645.508 106.067 645.774 106.8 646.308 106.8C646.841 106.8 647.641 105.867 648.708 104C649.908 102 651.774 99.8667 654.308 97.6C656.974 95.2 659.641 93.4 662.308 92.2C665.108 91 668.108 90.4 671.308 90.4C678.774 90.4 684.774 93.1333 689.308 98.6C693.841 104.067 696.108 111.467 696.108 120.8V169.8C696.108 172.6 696.641 174.533 697.708 175.6C698.774 176.533 699.974 177.2 701.308 177.6C702.641 177.867 703.841 178.133 704.908 178.4C705.974 178.533 706.508 179.133 706.508 180.2C706.508 181.133 706.241 181.733 705.708 182C705.308 182.133 704.574 182.2 703.508 182.2C702.574 182.2 701.041 182.067 698.908 181.8C696.774 181.533 693.974 181.4 690.508 181.4C687.708 181.4 685.241 181.533 683.108 181.8C681.108 182.067 679.374 182.2 677.908 182.2C676.708 182.2 675.841 182.133 675.308 182C674.774 181.867 674.508 181.267 674.508 180.2C674.508 179.133 675.041 178.533 676.108 178.4C677.174 178.133 678.374 177.8 679.708 177.4C681.041 177 682.241 176.333 683.308 175.4C684.374 174.333 684.908 172.467 684.908 169.8V129.6C684.908 119.2 683.574 111.4 680.908 106.2C678.241 101 673.441 98.4 666.508 98.4C659.308 98.4 654.108 101.333 650.908 107.2C647.708 112.933 646.108 121.6 646.108 133.2V169.8C646.108 172.6 646.641 174.533 647.708 175.6C648.774 176.533 649.974 177.2 651.308 177.6C652.641 177.867 653.841 178.133 654.908 178.4C655.974 178.533 656.508 179.133 656.508 180.2C656.508 181.133 656.241 181.733 655.708 182C655.308 182.133 654.574 182.2 653.508 182.2C652.574 182.2 651.041 182.067 648.908 181.8C646.774 181.533 643.974 181.4 640.508 181.4C637.974 181.4 635.641 181.533 633.508 181.8C631.374 182.067 629.374 182.2 627.508 182.2C626.441 182.2 625.641 182.133 625.108 182C624.708 181.733 624.508 181.133 624.508 180.2C624.508 179.133 625.041 178.533 626.108 178.4C627.174 178.133 628.374 177.8 629.708 177.4C631.041 177 632.241 176.333 633.308 175.4C634.374 174.333 634.908 172.467 634.908 169.8V111.8C634.908 109.8 634.441 108.533 633.508 108C632.708 107.333 631.774 106.933 630.708 106.8C629.774 106.667 628.908 106.533 628.108 106.4C627.308 106.267 626.908 105.8 626.908 105C626.908 103.8 627.574 103 628.908 102.6C630.374 102.067 631.841 101.267 633.308 100.2C636.774 97.8 639.308 95.6 640.908 93.6C642.508 91.4667 643.641 90.4 644.308 90.4C644.974 90.4 645.308 90.8667 645.308 91.8C645.441 92.6 645.508 93.7333 645.508 95.2ZM742.947 90.4C749.214 90.4 754.814 91.5333 759.747 93.8C764.814 96.0667 769.014 99.2667 772.347 103.4C775.814 107.533 778.414 112.533 780.147 118.4C782.014 124.267 782.947 130.733 782.947 137.8C782.947 145 782.014 151.6 780.147 157.6C778.28 163.467 775.547 168.533 771.947 172.8C768.48 176.933 764.214 180.133 759.147 182.4C754.08 184.667 748.347 185.8 741.947 185.8C736.214 185.8 731.014 184.6 726.347 182.2C721.68 179.933 717.68 176.733 714.347 172.6C711.014 168.333 708.414 163.267 706.547 157.4C704.68 151.533 703.747 145.067 703.747 138C703.747 130.8 704.68 124.267 706.547 118.4C708.547 112.533 711.28 107.533 714.747 103.4C718.347 99.2667 722.547 96.0667 727.347 93.8C732.147 91.5333 737.347 90.4 742.947 90.4ZM743.347 94C734.947 94 728.28 97.6667 723.347 105C718.547 112.2 716.147 122.8 716.147 136.8C716.147 143.867 716.814 150.2 718.147 155.8C719.48 161.267 721.347 166 723.747 170C726.147 173.867 728.947 176.867 732.147 179C735.48 181 739.08 182 742.947 182C751.48 182 758.147 178.467 762.947 171.4C767.747 164.2 770.147 153.733 770.147 140C770.147 125.333 767.68 114 762.747 106C757.947 98 751.48 94 743.347 94ZM801.795 100.4V146.4C801.795 156.8 803.129 164.6 805.795 169.8C808.462 175 813.262 177.6 820.195 177.6C827.395 177.6 832.595 174.733 835.795 169C838.995 163.133 840.595 154.4 840.595 142.8V106.4C840.595 103.733 840.062 101.867 838.995 100.8C837.929 99.7333 836.729 99 835.395 98.6C834.062 98.2 832.862 97.9333 831.795 97.8C830.729 97.6667 830.195 97.0667 830.195 96C830.195 95.0667 830.329 94.5333 830.595 94.4C830.995 94.1333 831.529 94 832.195 94C832.729 94 833.595 94.0667 834.795 94.2C835.995 94.3333 837.595 94.4 839.595 94.4C841.862 94.4 843.795 94.3333 845.395 94.2C846.995 94.0667 848.129 94 848.795 94C850.262 94 851.129 94.4 851.395 95.2C851.662 95.8667 851.795 97.6 851.795 100.4V166.2C851.795 169 852.195 170.867 852.995 171.8C853.795 172.733 854.662 173.267 855.595 173.4C856.662 173.533 857.595 173.6 858.395 173.6C859.329 173.6 859.795 174.067 859.795 175C859.795 176.067 859.062 176.933 857.595 177.6C856.129 178.133 854.395 178.933 852.395 180C849.995 181.333 848.062 182.6 846.595 183.8C845.129 185.133 843.862 185.8 842.795 185.8C841.995 185.8 841.462 185.333 841.195 184.4C841.062 183.6 840.995 182.467 840.995 181V171.6C840.995 170 840.795 169.2 840.395 169.2C839.862 169.2 839.062 170.2 837.995 172.2C836.929 174.067 835.062 176.133 832.395 178.4C829.729 180.8 826.995 182.6 824.195 183.8C821.529 185.133 818.529 185.8 815.195 185.8C810.662 185.8 806.529 184.667 802.795 182.4C799.195 180.133 796.462 177 794.595 173C792.729 169.4 791.595 165.667 791.195 161.8C790.795 157.933 790.595 153.867 790.595 149.6V106.4C790.595 103.733 790.062 101.867 788.995 100.8C787.929 99.7333 786.729 99 785.395 98.6C784.062 98.2 782.862 97.9333 781.795 97.8C780.729 97.6667 780.195 97.0667 780.195 96C780.195 95.0667 780.329 94.5333 780.595 94.4C780.995 94.1333 781.529 94 782.195 94C782.462 94 783.329 94.0667 784.795 94.2C786.395 94.3333 788.595 94.4 791.395 94.4C792.862 94.4 794.129 94.3333 795.195 94.2C796.395 94.0667 797.529 94 798.595 94C800.062 94 800.929 94.3333 801.195 95C801.595 95.6667 801.795 97.4667 801.795 100.4ZM877.634 113L891.634 160.8C892.034 161.733 892.434 162.2 892.834 162.2C893.234 162.2 893.634 161.6 894.034 160.4L910.234 114C910.901 112.133 911.434 110.333 911.834 108.6C912.234 106.867 912.434 105.067 912.434 103.2C912.434 101.467 911.834 100.333 910.634 99.8C909.568 99.1333 908.368 98.7333 907.034 98.6C905.834 98.3333 904.634 98.0667 903.434 97.8C902.368 97.5333 901.834 96.8667 901.834 95.8C901.834 95 901.968 94.5333 902.234 94.4C902.634 94.1333 903.168 94 903.834 94C904.234 94 905.434 94.1333 907.434 94.4C909.568 94.5333 912.768 94.6 917.034 94.6C920.634 94.6 923.301 94.5333 925.034 94.4C926.768 94.1333 927.768 94 928.034 94C928.834 94 929.368 94.0667 929.634 94.2C929.901 94.3333 930.034 94.8667 930.034 95.8C930.034 97.1333 929.568 97.8667 928.634 98C927.834 98 926.501 98.4 924.634 99.2C922.768 100 921.234 101.333 920.034 103.2C918.834 105.067 917.501 108.133 916.034 112.4L891.434 180C891.034 181.2 890.634 182.133 890.234 182.8C889.968 183.467 889.501 183.8 888.834 183.8C888.034 183.8 887.501 183.533 887.234 183C886.968 182.467 886.701 181.667 886.434 180.6L862.434 104.6C861.634 102.2 860.701 100.667 859.634 100C858.568 99.2 857.501 98.6667 856.434 98.4C855.501 98.1333 854.701 97.9333 854.034 97.8C853.234 97.6667 852.834 97 852.834 95.8C852.834 95 852.901 94.5333 853.034 94.4C853.168 94.1333 853.568 94 854.234 94H855.034C855.701 94 857.168 94.1333 859.434 94.4C861.834 94.5333 864.901 94.6 868.634 94.6C872.901 94.6 876.168 94.5333 878.434 94.4C880.701 94.1333 882.101 94 882.634 94C883.301 94 883.834 94.1333 884.234 94.4C884.634 94.5333 884.834 95 884.834 95.8C884.834 96.7333 884.301 97.3333 883.234 97.6C882.301 97.8667 881.234 98.2 880.034 98.6C878.968 98.8667 877.901 99.2667 876.834 99.8C875.901 100.2 875.434 101.067 875.434 102.4C875.434 103.867 875.634 105.467 876.034 107.2C876.434 108.8 876.968 110.733 877.634 113ZM952.305 121C960.571 121 966.638 120.533 970.505 119.6C974.371 118.533 976.305 116.067 976.305 112.2C976.305 110.067 975.838 107.933 974.905 105.8C973.971 103.667 972.638 101.733 970.905 100C969.305 98.2667 967.371 96.8667 965.105 95.8C962.838 94.7333 960.438 94.2 957.905 94.2C954.705 94.2 951.638 95 948.705 96.6C945.771 98.2 943.171 100.2 940.905 102.6C938.771 105 937.038 107.667 935.705 110.6C934.371 113.533 933.705 116.4 933.705 119.2C933.705 119.6 933.905 120 934.305 120.4C934.705 120.8 935.238 121 935.905 121H952.305ZM983.305 125.8H935.705C933.971 125.8 932.905 126.4 932.505 127.6C932.105 128.667 931.905 130.867 931.905 134.2C931.905 140.867 932.638 146.8 934.105 152C935.705 157.2 937.838 161.6 940.505 165.2C943.305 168.8 946.571 171.6 950.305 173.6C954.171 175.467 958.371 176.4 962.905 176.4C967.038 176.4 970.505 175.733 973.305 174.4C976.238 173.067 978.638 171.6 980.505 170C982.371 168.4 983.838 166.933 984.905 165.6C985.971 164.267 986.705 163.6 987.105 163.6C988.038 163.6 988.505 164.133 988.505 165.2C988.505 166.667 987.771 168.6 986.305 171C984.838 173.267 982.705 175.533 979.905 177.8C977.238 179.933 973.905 181.8 969.905 183.4C966.038 185 961.705 185.8 956.905 185.8C951.438 185.8 946.371 184.667 941.705 182.4C937.171 180.133 933.238 176.933 929.905 172.8C926.571 168.667 923.971 163.667 922.105 157.8C920.371 151.933 919.505 145.4 919.505 138.2C919.505 130.867 920.571 124.267 922.705 118.4C924.838 112.4 927.705 107.333 931.305 103.2C934.905 99.0667 939.105 95.9333 943.905 93.8C948.705 91.5333 953.771 90.4 959.105 90.4C963.771 90.4 967.971 91.2667 971.705 93C975.438 94.7333 978.571 97.0667 981.105 100C983.771 102.8 985.771 106.133 987.105 110C988.571 113.733 989.305 117.6 989.305 121.6C989.305 123.067 988.838 124.133 987.905 124.8C987.105 125.467 985.571 125.8 983.305 125.8ZM1008.18 48V169.8C1008.18 172.6 1008.71 174.533 1009.78 175.6C1010.84 176.533 1012.04 177.2 1013.38 177.6C1014.71 177.867 1015.91 178.133 1016.98 178.4C1018.04 178.533 1018.58 179.133 1018.58 180.2C1018.58 181.133 1018.31 181.733 1017.78 182C1017.38 182.133 1016.64 182.2 1015.58 182.2C1014.51 182.2 1012.91 182.067 1010.78 181.8C1008.64 181.533 1005.91 181.4 1002.58 181.4C999.645 181.4 996.978 181.533 994.578 181.8C992.311 182.067 990.378 182.2 988.778 182.2C987.578 182.2 986.711 182.133 986.178 182C985.645 181.733 985.378 181.133 985.378 180.2C985.378 179.133 985.978 178.533 987.178 178.4C988.378 178.133 989.711 177.8 991.178 177.4C992.645 177 993.978 176.333 995.178 175.4C996.378 174.333 996.978 172.467 996.978 169.8V63.8C996.978 57.8 994.911 54.8 990.778 54.8C990.645 54.8 990.378 54.8667 989.978 55C989.711 55 989.245 55 988.578 55C987.645 55 987.178 54.4 987.178 53.2C987.178 51.7333 987.978 50.8667 989.578 50.6C991.178 50.3333 993.045 49.8667 995.178 49.2C998.645 48 1001.24 46.8 1002.98 45.6C1004.84 44.2667 1006.11 43.6 1006.78 43.6C1007.71 43.6 1008.18 45.0667 1008.18 48ZM1035.83 48V169.8C1035.83 172.6 1036.36 174.533 1037.43 175.6C1038.49 176.533 1039.69 177.2 1041.03 177.6C1042.36 177.867 1043.56 178.133 1044.63 178.4C1045.69 178.533 1046.23 179.133 1046.23 180.2C1046.23 181.133 1045.96 181.733 1045.43 182C1045.03 182.133 1044.29 182.2 1043.23 182.2C1042.16 182.2 1040.56 182.067 1038.43 181.8C1036.29 181.533 1033.56 181.4 1030.23 181.4C1027.29 181.4 1024.63 181.533 1022.23 181.8C1019.96 182.067 1018.03 182.2 1016.43 182.2C1015.23 182.2 1014.36 182.133 1013.83 182C1013.29 181.733 1013.03 181.133 1013.03 180.2C1013.03 179.133 1013.63 178.533 1014.83 178.4C1016.03 178.133 1017.36 177.8 1018.83 177.4C1020.29 177 1021.63 176.333 1022.83 175.4C1024.03 174.333 1024.63 172.467 1024.63 169.8V63.8C1024.63 57.8 1022.56 54.8 1018.43 54.8C1018.29 54.8 1018.03 54.8667 1017.63 55C1017.36 55 1016.89 55 1016.23 55C1015.29 55 1014.83 54.4 1014.83 53.2C1014.83 51.7333 1015.63 50.8667 1017.23 50.6C1018.83 50.3333 1020.69 49.8667 1022.83 49.2C1026.29 48 1028.89 46.8 1030.63 45.6C1032.49 44.2667 1033.76 43.6 1034.43 43.6C1035.36 43.6 1035.83 45.0667 1035.83 48ZM1075.88 121C1084.14 121 1090.21 120.533 1094.08 119.6C1097.94 118.533 1099.88 116.067 1099.88 112.2C1099.88 110.067 1099.41 107.933 1098.48 105.8C1097.54 103.667 1096.21 101.733 1094.48 100C1092.88 98.2667 1090.94 96.8667 1088.68 95.8C1086.41 94.7333 1084.01 94.2 1081.48 94.2C1078.28 94.2 1075.21 95 1072.28 96.6C1069.34 98.2 1066.74 100.2 1064.48 102.6C1062.34 105 1060.61 107.667 1059.28 110.6C1057.94 113.533 1057.28 116.4 1057.28 119.2C1057.28 119.6 1057.48 120 1057.88 120.4C1058.28 120.8 1058.81 121 1059.48 121H1075.88ZM1106.88 125.8H1059.28C1057.54 125.8 1056.48 126.4 1056.08 127.6C1055.68 128.667 1055.48 130.867 1055.48 134.2C1055.48 140.867 1056.21 146.8 1057.68 152C1059.28 157.2 1061.41 161.6 1064.08 165.2C1066.88 168.8 1070.14 171.6 1073.88 173.6C1077.74 175.467 1081.94 176.4 1086.48 176.4C1090.61 176.4 1094.08 175.733 1096.88 174.4C1099.81 173.067 1102.21 171.6 1104.08 170C1105.94 168.4 1107.41 166.933 1108.48 165.6C1109.54 164.267 1110.28 163.6 1110.68 163.6C1111.61 163.6 1112.08 164.133 1112.08 165.2C1112.08 166.667 1111.34 168.6 1109.88 171C1108.41 173.267 1106.28 175.533 1103.48 177.8C1100.81 179.933 1097.48 181.8 1093.48 183.4C1089.61 185 1085.28 185.8 1080.48 185.8C1075.01 185.8 1069.94 184.667 1065.28 182.4C1060.74 180.133 1056.81 176.933 1053.48 172.8C1050.14 168.667 1047.54 163.667 1045.68 157.8C1043.94 151.933 1043.08 145.4 1043.08 138.2C1043.08 130.867 1044.14 124.267 1046.28 118.4C1048.41 112.4 1051.28 107.333 1054.88 103.2C1058.48 99.0667 1062.68 95.9333 1067.48 93.8C1072.28 91.5333 1077.34 90.4 1082.68 90.4C1087.34 90.4 1091.54 91.2667 1095.28 93C1099.01 94.7333 1102.14 97.0667 1104.68 100C1107.34 102.8 1109.34 106.133 1110.68 110C1112.14 113.733 1112.88 117.6 1112.88 121.6C1112.88 123.067 1112.41 124.133 1111.48 124.8C1110.68 125.467 1109.14 125.8 1106.88 125.8ZM1141.15 90.4C1145.28 90.4 1148.48 90.6667 1150.75 91.2C1153.15 91.6 1154.88 92.2667 1155.95 93.2C1157.15 94 1157.88 95 1158.15 96.2C1158.42 97.2667 1158.55 98.4667 1158.55 99.8V108C1158.55 110.667 1157.95 112 1156.75 112C1155.55 112 1154.88 111.2 1154.75 109.6C1154.62 107.867 1153.68 105.533 1151.95 102.6C1150.22 99.6667 1148.08 97.4667 1145.55 96C1143.02 94.5333 1140.35 93.8 1137.55 93.8C1133.68 93.8 1130.42 95.2 1127.75 98C1125.08 100.667 1123.75 104.2 1123.75 108.6C1123.75 113.267 1125.08 116.933 1127.75 119.6C1130.42 122.133 1134.42 124.733 1139.75 127.4C1143.22 129.133 1146.35 130.8 1149.15 132.4C1151.95 134 1154.35 135.8 1156.35 137.8C1158.35 139.8 1159.88 142.2 1160.95 145C1162.15 147.667 1162.75 151.067 1162.75 155.2C1162.75 164.667 1160.15 172.133 1154.95 177.6C1149.75 183.067 1142.42 185.8 1132.95 185.8C1130.28 185.8 1127.62 185.533 1124.95 185C1122.42 184.467 1120.08 183.667 1117.95 182.6C1115.95 181.667 1114.28 180.6 1112.95 179.4C1111.62 178.067 1110.95 176.6 1110.95 175C1110.95 173.933 1111.02 172 1111.15 169.2C1111.28 166.267 1111.35 162.467 1111.35 157.8C1111.35 155.533 1112.08 154.4 1113.55 154.4C1114.75 154.4 1115.48 155.467 1115.75 157.6C1116.15 159.6 1116.95 162.933 1118.15 167.6C1119.48 172.4 1121.28 176.067 1123.55 178.6C1125.95 181 1129.62 182.2 1134.55 182.2C1140.15 182.2 1144.62 180.4 1147.95 176.8C1151.42 173.067 1153.15 168.2 1153.15 162.2C1153.15 156.867 1151.68 152.733 1148.75 149.8C1145.82 146.733 1141.35 143.8 1135.35 141C1128.02 137.533 1122.55 134 1118.95 130.4C1115.48 126.8 1113.75 122.067 1113.75 116.2C1113.75 108.6 1116.15 102.4 1120.95 97.6C1125.75 92.8 1132.48 90.4 1141.15 90.4Z"
        fill="#151515" />
    <path
        d="M421.716 233.392L420.996 237.472C420.9 238.048 420.692 238.336 420.372 238.336C420.084 238.336 419.94 238.048 419.94 237.472V236.224C419.94 234.784 419.588 233.712 418.884 233.008C418.18 232.272 417.172 231.904 415.86 231.904C415.092 231.904 414.372 232.064 413.7 232.384C413.06 232.672 412.484 233.088 411.972 233.632C411.492 234.144 411.108 234.752 410.82 235.456C410.532 236.16 410.388 236.928 410.388 237.76C410.388 238.592 410.532 239.344 410.82 240.016C411.108 240.656 411.54 241.328 412.116 242.032L414.948 245.392C415.46 245.968 415.956 246.528 416.436 247.072C416.916 247.616 417.332 248.192 417.684 248.8C418.068 249.408 418.372 250.08 418.596 250.816C418.82 251.52 418.932 252.352 418.932 253.312C418.932 254.656 418.676 255.92 418.164 257.104C417.684 258.256 417.012 259.264 416.148 260.128C415.316 260.992 414.34 261.664 413.22 262.144C412.1 262.656 410.916 262.912 409.668 262.912C408.836 262.912 407.94 262.768 406.98 262.48C406.02 262.224 405.14 261.872 404.34 261.424C403.988 261.2 403.78 260.992 403.716 260.8C403.62 260.608 403.572 260.4 403.572 260.176V259.84L403.716 255.664C403.716 255.312 403.748 255.04 403.812 254.848C403.876 254.624 403.988 254.512 404.148 254.512C404.34 254.512 404.468 254.592 404.532 254.752C404.628 254.88 404.692 255.104 404.724 255.424C404.788 255.712 404.836 256.08 404.868 256.528C404.932 256.976 405.028 257.504 405.156 258.112C405.348 259.072 405.876 259.936 406.74 260.704C407.636 261.44 408.724 261.808 410.004 261.808C410.804 261.808 411.556 261.632 412.26 261.28C412.996 260.896 413.62 260.4 414.132 259.792C414.644 259.152 415.044 258.4 415.332 257.536C415.652 256.672 415.812 255.76 415.812 254.8C415.812 253.552 415.524 252.48 414.948 251.584C414.404 250.656 413.716 249.68 412.884 248.656L410.484 245.728C408.724 243.648 407.844 241.616 407.844 239.632C407.844 238.288 408.052 237.072 408.468 235.984C408.916 234.896 409.524 233.968 410.292 233.2C411.092 232.432 412.02 231.856 413.076 231.472C414.132 231.056 415.284 230.848 416.532 230.848C417.236 230.848 417.892 230.912 418.5 231.04C419.14 231.168 419.7 231.344 420.18 231.568C420.66 231.76 421.028 232 421.284 232.288C421.572 232.576 421.716 232.88 421.716 233.2V233.392ZM429.762 236.848L428.898 240.496C429.538 240.336 430.146 240.224 430.722 240.16C431.33 240.064 431.906 240.016 432.45 240.016C434.658 240.016 436.354 240.656 437.538 241.936C438.754 243.216 439.362 245.056 439.362 247.456C439.362 249.28 439.026 251.12 438.354 252.976C437.714 254.832 436.77 256.576 435.522 258.208C433.154 261.248 430.722 262.768 428.226 262.768C427.394 262.768 426.642 262.592 425.97 262.24C425.33 261.92 424.69 261.408 424.05 260.704L422.37 268.96C422.306 269.28 422.274 269.552 422.274 269.776C422.274 270.256 422.418 270.592 422.706 270.784C422.994 271.008 423.314 271.168 423.666 271.264C424.05 271.392 424.386 271.488 424.674 271.552C424.962 271.648 425.106 271.808 425.106 272.032C425.106 272.384 424.93 272.56 424.578 272.56C424.226 272.56 423.634 272.496 422.802 272.368C421.97 272.272 420.914 272.224 419.634 272.224C418.738 272.224 418.002 272.272 417.426 272.368C416.85 272.496 416.402 272.56 416.082 272.56C415.538 272.56 415.266 272.432 415.266 272.176C415.266 271.824 415.474 271.616 415.89 271.552C416.274 271.488 416.802 271.328 417.474 271.072C417.858 270.912 418.162 270.752 418.386 270.592C418.578 270.464 418.738 270.288 418.866 270.064C418.994 269.872 419.106 269.616 419.202 269.296C419.266 268.976 419.362 268.56 419.49 268.048L425.634 242.704C424.898 243.088 424.322 243.408 423.906 243.664C423.49 243.888 423.202 244 423.042 244C422.786 244 422.658 243.92 422.658 243.76C422.658 243.344 422.93 242.976 423.474 242.656C424.018 242.304 424.85 241.904 425.97 241.456L427.026 236.848C427.122 236.464 427.234 236.224 427.362 236.128C427.49 236.032 427.714 235.984 428.034 235.984H428.658C429.106 235.984 429.41 236 429.57 236.032C429.762 236.032 429.858 236.112 429.858 236.272C429.858 236.272 429.858 236.336 429.858 236.464C429.858 236.56 429.826 236.688 429.762 236.848ZM425.586 254.08C425.362 254.976 425.186 255.76 425.058 256.432C424.93 257.104 424.866 257.712 424.866 258.256C424.866 259.28 425.122 260.08 425.634 260.656C426.178 261.232 426.898 261.52 427.794 261.52C430.066 261.52 431.954 260.064 433.458 257.152C434.546 255.072 435.346 253.104 435.858 251.248C436.37 249.36 436.626 247.776 436.626 246.496C436.626 244.832 436.194 243.552 435.33 242.656C434.466 241.76 433.218 241.312 431.586 241.312C430.818 241.312 429.826 241.488 428.61 241.84L425.586 254.08ZM452.502 240.016C453.558 240.016 454.534 240.24 455.43 240.688C456.358 241.104 457.142 241.728 457.782 242.56C458.454 243.36 458.982 244.336 459.366 245.488C459.75 246.64 459.942 247.936 459.942 249.376C459.942 251.2 459.606 252.928 458.934 254.56C458.262 256.192 457.382 257.632 456.294 258.88C455.238 260.096 454.022 261.056 452.646 261.76C451.302 262.464 449.958 262.816 448.614 262.816C447.59 262.816 446.63 262.592 445.734 262.144C444.838 261.728 444.054 261.12 443.382 260.32C442.742 259.52 442.23 258.56 441.846 257.44C441.462 256.288 441.27 255.024 441.27 253.648C441.27 251.696 441.606 249.888 442.278 248.224C442.95 246.528 443.83 245.088 444.918 243.904C446.006 242.688 447.206 241.744 448.518 241.072C449.862 240.368 451.19 240.016 452.502 240.016ZM456.966 247.216C456.966 245.232 456.598 243.728 455.862 242.704C455.126 241.68 454.086 241.168 452.742 241.168C451.782 241.168 450.79 241.52 449.766 242.224C448.742 242.896 447.83 243.904 447.03 245.248C446.102 246.816 445.398 248.448 444.918 250.144C444.438 251.84 444.198 253.488 444.198 255.088C444.198 257.168 444.582 258.768 445.35 259.888C446.15 261.008 447.206 261.568 448.518 261.568C449.51 261.568 450.502 261.2 451.494 260.464C452.518 259.696 453.43 258.672 454.23 257.392C455.03 256.08 455.686 254.56 456.198 252.832C456.71 251.072 456.966 249.2 456.966 247.216ZM470.918 236.848L469.766 240.88H473.27C473.494 240.88 473.606 240.976 473.606 241.168C473.606 241.744 473.414 242.032 473.03 242.032H469.526L466.934 251.776C466.454 253.6 466.07 255.088 465.782 256.24C465.494 257.36 465.35 258.16 465.35 258.64C465.35 258.96 465.414 259.216 465.542 259.408C465.702 259.6 465.862 259.696 466.022 259.696C466.47 259.696 467.238 258.864 468.326 257.2C468.774 256.528 469.046 256.016 469.142 255.664C469.27 255.28 469.446 255.088 469.67 255.088C469.926 255.088 470.054 255.248 470.054 255.568C470.054 256.048 469.51 257.088 468.422 258.688C467.59 259.936 466.774 260.88 465.974 261.52C465.174 262.16 464.502 262.48 463.958 262.48C463.478 262.48 463.078 262.272 462.758 261.856C462.47 261.408 462.326 260.8 462.326 260.032C462.326 258.464 462.934 255.536 464.15 251.248L466.742 242.032H463.814C463.718 242.032 463.638 242 463.574 241.936C463.51 241.872 463.478 241.808 463.478 241.744C463.478 241.168 463.67 240.88 464.054 240.88H467.078L468.278 236.368C468.406 235.92 468.598 235.632 468.854 235.504C469.142 235.376 469.59 235.312 470.198 235.312C470.838 235.312 471.158 235.472 471.158 235.792C471.158 235.92 471.078 236.272 470.918 236.848ZM490.389 240.88H493.941C494.133 240.88 494.229 240.976 494.229 241.168C494.229 241.808 494.037 242.128 493.653 242.128H490.053L487.317 255.04C486.677 257.952 486.069 260.528 485.493 262.768C484.949 265.008 484.325 266.896 483.621 268.432C482.917 269.968 482.117 271.12 481.221 271.888C480.293 272.688 479.157 273.088 477.813 273.088C476.885 273.088 476.133 272.832 475.557 272.32C474.981 271.84 474.693 271.216 474.693 270.448C474.693 269.808 474.837 269.312 475.125 268.96C475.413 268.608 475.797 268.432 476.277 268.432C476.661 268.432 477.013 268.544 477.333 268.768C477.621 269.024 477.797 269.312 477.861 269.632C477.925 269.984 477.957 270.32 477.957 270.64C477.957 270.96 477.989 271.232 478.053 271.456C478.085 271.68 478.165 271.856 478.293 271.984C478.421 272.112 478.661 272.176 479.013 272.176C479.653 272.176 480.245 271.52 480.789 270.208C481.333 268.896 481.909 266.88 482.517 264.16L487.365 242.128H484.917C484.693 242.128 484.581 242.032 484.581 241.84C484.581 241.2 484.773 240.88 485.157 240.88H487.653C488.005 238.864 488.485 237.104 489.093 235.6C489.733 234.096 490.437 232.832 491.205 231.808C492.005 230.784 492.853 230.016 493.749 229.504C494.677 228.992 495.589 228.736 496.485 228.736C497.413 228.736 498.117 228.992 498.597 229.504C499.109 229.984 499.365 230.64 499.365 231.472C499.365 232.016 499.221 232.464 498.933 232.816C498.645 233.168 498.277 233.344 497.829 233.344C497.093 233.344 496.581 232.864 496.293 231.904C496.133 231.392 495.989 230.944 495.861 230.56C495.733 230.176 495.429 229.984 494.949 229.984C493.477 229.984 491.957 233.616 490.389 240.88ZM507.08 240.88C506.152 240.88 504.952 241.488 503.48 242.704C502.04 243.888 500.6 245.728 499.16 248.224C498.04 250.176 497.208 251.952 496.664 253.552C496.12 255.12 495.848 256.448 495.848 257.536C495.848 258.464 496.056 259.168 496.472 259.648C496.888 260.128 497.416 260.368 498.056 260.368C498.952 260.368 499.928 259.84 500.984 258.784C502.072 257.696 503.336 256.096 504.776 253.984C508.136 249.056 509.816 245.664 509.816 243.808C509.816 242.88 509.576 242.16 509.096 241.648C508.616 241.136 507.944 240.88 507.08 240.88ZM513.512 241.36L509.48 256C509.288 256.672 509.16 257.216 509.096 257.632C509.032 258.048 509 258.32 509 258.448C509 259.12 509.176 259.456 509.528 259.456C510.072 259.456 510.824 258.784 511.784 257.44C512.2 256.864 512.472 256.416 512.6 256.096C512.728 255.776 512.92 255.616 513.176 255.616C513.336 255.616 513.416 255.728 513.416 255.952C513.416 256.624 512.904 257.68 511.88 259.12C510.12 261.68 508.568 262.96 507.224 262.96C506.2 262.96 505.688 262.272 505.688 260.896C505.688 260.096 505.784 259.28 505.976 258.448C506.2 257.584 506.44 256.688 506.696 255.76L508.136 250.432C505.736 254.56 503.624 257.664 501.8 259.744C499.976 261.824 498.264 262.864 496.664 262.864C495.48 262.864 494.536 262.416 493.832 261.52C493.128 260.624 492.776 259.328 492.776 257.632C492.776 255.872 493.176 254 493.976 252.016C494.808 250.032 496.072 247.984 497.768 245.872C499.368 243.856 501 242.368 502.664 241.408C504.36 240.416 505.848 239.92 507.128 239.92C507.992 239.92 508.68 240.096 509.192 240.448C509.736 240.768 510.12 240.928 510.344 240.928C510.472 240.928 510.584 240.864 510.68 240.736C510.808 240.576 510.952 240.416 511.112 240.256C511.272 240.064 511.464 239.904 511.688 239.776C511.944 239.616 512.248 239.536 512.6 239.536C513.048 239.536 513.352 239.584 513.512 239.68C513.672 239.744 513.752 239.952 513.752 240.304C513.752 240.528 513.672 240.88 513.512 241.36ZM526.604 229.264L520.748 250.624C524.652 243.36 528.204 239.728 531.404 239.728C532.332 239.728 533.116 240.112 533.756 240.88C534.428 241.616 534.764 242.656 534.764 244C534.764 245.152 534.524 246.224 534.044 247.216C533.564 248.208 532.844 249.088 531.884 249.856C530.956 250.624 529.804 251.264 528.428 251.776C527.052 252.288 525.468 252.64 523.676 252.832C524.508 253.28 525.084 253.808 525.404 254.416C525.756 255.024 526.076 255.696 526.364 256.432L527.18 258.544C527.532 259.44 527.948 260.144 528.428 260.656C528.94 261.136 529.468 261.376 530.012 261.376C530.524 261.376 530.908 261.2 531.164 260.848C531.452 260.464 531.596 259.968 531.596 259.36C531.596 259.104 531.516 258.896 531.356 258.736C531.228 258.544 531.068 258.368 530.876 258.208C530.716 258.048 530.556 257.888 530.396 257.728C530.268 257.536 530.204 257.296 530.204 257.008C530.204 256.72 530.284 256.48 530.444 256.288C530.636 256.064 530.86 255.952 531.116 255.952C531.532 255.952 531.9 256.192 532.22 256.672C532.54 257.152 532.7 257.808 532.7 258.64C532.7 259.728 532.316 260.656 531.548 261.424C530.812 262.192 529.9 262.576 528.812 262.576C527.468 262.576 526.364 262.096 525.5 261.136C524.636 260.144 523.884 258.64 523.244 256.624C522.924 255.6 522.588 254.816 522.236 254.272C521.916 253.728 521.372 253.424 520.604 253.36C520.22 254.096 519.916 254.848 519.692 255.616C519.468 256.352 519.244 257.104 519.02 257.872L518.156 261.088C518.028 261.504 517.884 261.792 517.724 261.952C517.564 262.08 517.1 262.144 516.332 262.144C515.724 262.144 515.42 261.952 515.42 261.568C515.42 261.472 515.436 261.328 515.468 261.136C515.5 260.912 515.548 260.656 515.612 260.368L522.62 233.536C522.748 233.12 522.828 232.768 522.86 232.48C522.892 232.16 522.908 231.888 522.908 231.664C522.908 231.408 522.812 231.2 522.62 231.04C522.46 230.88 522.204 230.8 521.852 230.8C521.756 230.8 521.644 230.816 521.516 230.848C521.42 230.848 521.324 230.848 521.228 230.848C520.716 230.848 520.46 230.688 520.46 230.368C520.46 230.176 520.524 230.048 520.652 229.984C520.812 229.888 521.02 229.824 521.276 229.792C521.532 229.76 521.836 229.744 522.188 229.744C522.572 229.712 522.988 229.648 523.436 229.552C524.332 229.392 524.988 229.152 525.404 228.832C525.82 228.512 526.172 228.352 526.46 228.352C526.62 228.352 526.7 228.48 526.7 228.736C526.7 228.768 526.7 228.832 526.7 228.928C526.7 228.992 526.668 229.104 526.604 229.264ZM521.228 251.968C521.484 252 521.724 252.032 521.948 252.064C522.204 252.096 522.46 252.112 522.716 252.112C523.964 252.112 525.148 251.872 526.268 251.392C527.388 250.88 528.364 250.24 529.196 249.472C530.028 248.672 530.684 247.808 531.164 246.88C531.676 245.92 531.932 244.992 531.932 244.096C531.932 243.424 531.724 242.88 531.308 242.464C530.924 242.048 530.476 241.84 529.964 241.84C528.972 241.84 527.66 242.672 526.028 244.336C524.428 245.968 522.828 248.512 521.228 251.968ZM539.977 251.776C543.337 251.616 545.897 250.784 547.657 249.28C549.449 247.776 550.345 245.92 550.345 243.712C550.345 242.816 550.121 242.096 549.673 241.552C549.257 241.008 548.681 240.736 547.945 240.736C547.209 240.736 546.457 240.976 545.689 241.456C544.953 241.936 544.233 242.656 543.529 243.616C542.825 244.544 542.153 245.696 541.513 247.072C540.905 248.448 540.393 250.016 539.977 251.776ZM539.881 252.928C539.785 253.952 539.737 254.64 539.737 254.992C539.737 256.784 540.121 258.16 540.889 259.12C541.689 260.08 542.713 260.56 543.961 260.56C545.689 260.56 547.369 259.584 549.001 257.632C549.481 257.056 549.785 256.576 549.913 256.192C550.041 255.808 550.249 255.616 550.537 255.616C550.729 255.616 550.825 255.776 550.825 256.096C550.825 256.352 550.697 256.72 550.441 257.2C550.217 257.68 549.849 258.256 549.337 258.928C547.257 261.616 545.097 262.96 542.857 262.96C541.993 262.96 541.177 262.752 540.409 262.336C539.673 261.952 539.017 261.408 538.441 260.704C537.897 259.968 537.465 259.088 537.145 258.064C536.825 257.04 536.665 255.904 536.665 254.656C536.665 252.896 537.001 251.136 537.673 249.376C538.345 247.584 539.337 245.888 540.649 244.288C541.865 242.784 543.129 241.664 544.441 240.928C545.785 240.192 547.065 239.824 548.281 239.824C549.721 239.824 550.889 240.272 551.785 241.168C552.681 242.064 553.129 243.216 553.129 244.624C553.129 246.992 552.009 248.88 549.769 250.288C547.561 251.696 544.265 252.576 539.881 252.928ZM571.576 246.592L570.28 251.296C572.424 247.488 574.44 244.656 576.328 242.8C578.216 240.912 579.96 239.968 581.56 239.968C582.488 239.968 583.208 240.208 583.72 240.688C584.232 241.168 584.488 241.824 584.488 242.656C584.488 243.616 584.184 244.992 583.576 246.784L579.832 257.872C579.672 258.352 579.592 258.72 579.592 258.976C579.592 259.68 579.832 260.032 580.312 260.032C580.792 260.032 581.272 259.792 581.752 259.312C582.264 258.8 582.84 258.064 583.48 257.104C584.024 256.304 584.376 255.728 584.536 255.376C584.728 254.992 584.904 254.8 585.064 254.8C585.256 254.8 585.352 254.944 585.352 255.232C585.352 255.392 585.176 255.808 584.824 256.48C584.504 257.12 583.976 257.968 583.24 259.024C582.408 260.24 581.56 261.152 580.696 261.76C579.832 262.336 579.08 262.624 578.44 262.624C577.288 262.624 576.712 261.888 576.712 260.416C576.712 259.68 576.888 258.56 577.24 257.056C577.624 255.52 578.216 253.6 579.016 251.296L580.984 245.536C581.176 244.992 581.304 244.528 581.368 244.144C581.432 243.76 581.464 243.472 581.464 243.28C581.464 242.256 581 241.744 580.072 241.744C579.624 241.744 579.032 242.016 578.296 242.56C577.56 243.072 576.744 243.824 575.848 244.816C574.952 245.776 574.04 246.96 573.112 248.368C572.184 249.744 571.32 251.296 570.52 253.024C569.848 254.464 569.336 255.744 568.984 256.864C568.632 257.952 568.344 258.88 568.12 259.648C567.896 260.416 567.704 261.008 567.544 261.424C567.384 261.808 567.16 262 566.872 262H564.808C564.712 262 564.616 261.952 564.52 261.856C564.456 261.76 564.424 261.664 564.424 261.568C564.424 261.472 564.488 261.232 564.616 260.848L567.928 249.712C568.376 248.144 568.728 246.832 568.984 245.776C569.24 244.72 569.368 243.904 569.368 243.328C569.368 242.72 569.144 242.416 568.696 242.416C568.248 242.416 567.8 242.64 567.352 243.088C566.904 243.536 566.488 244.032 566.104 244.576C565.72 245.088 565.368 245.568 565.048 246.016C564.76 246.464 564.536 246.688 564.376 246.688C564.152 246.688 564.04 246.544 564.04 246.256C564.04 246.16 564.184 245.824 564.472 245.248C564.792 244.672 565.32 243.968 566.056 243.136C567.912 240.928 569.48 239.824 570.76 239.824C571.848 239.824 572.392 240.576 572.392 242.08C572.392 242.304 572.344 242.816 572.248 243.616C572.152 244.384 571.928 245.376 571.576 246.592ZM590.837 251.776C594.197 251.616 596.757 250.784 598.517 249.28C600.309 247.776 601.205 245.92 601.205 243.712C601.205 242.816 600.981 242.096 600.533 241.552C600.117 241.008 599.541 240.736 598.805 240.736C598.069 240.736 597.317 240.976 596.549 241.456C595.813 241.936 595.093 242.656 594.389 243.616C593.685 244.544 593.013 245.696 592.373 247.072C591.765 248.448 591.253 250.016 590.837 251.776ZM590.741 252.928C590.645 253.952 590.597 254.64 590.597 254.992C590.597 256.784 590.981 258.16 591.749 259.12C592.549 260.08 593.573 260.56 594.821 260.56C596.549 260.56 598.229 259.584 599.861 257.632C600.341 257.056 600.645 256.576 600.773 256.192C600.901 255.808 601.109 255.616 601.397 255.616C601.589 255.616 601.685 255.776 601.685 256.096C601.685 256.352 601.557 256.72 601.301 257.2C601.077 257.68 600.709 258.256 600.197 258.928C598.117 261.616 595.957 262.96 593.717 262.96C592.853 262.96 592.037 262.752 591.269 262.336C590.533 261.952 589.877 261.408 589.301 260.704C588.757 259.968 588.325 259.088 588.005 258.064C587.685 257.04 587.525 255.904 587.525 254.656C587.525 252.896 587.861 251.136 588.533 249.376C589.205 247.584 590.197 245.888 591.509 244.288C592.725 242.784 593.989 241.664 595.301 240.928C596.645 240.192 597.925 239.824 599.141 239.824C600.581 239.824 601.749 240.272 602.645 241.168C603.541 242.064 603.989 243.216 603.989 244.624C603.989 246.992 602.869 248.88 600.629 250.288C598.421 251.696 595.125 252.576 590.741 252.928ZM617.77 253.552C614.698 259.632 611.722 262.672 608.842 262.672C608.042 262.672 607.386 262.384 606.874 261.808C606.362 261.232 606.106 260.384 606.106 259.264C606.106 258.752 606.154 258.144 606.25 257.44C606.378 256.736 606.57 255.968 606.826 255.136L609.898 245.344C610.058 244.832 610.154 244.4 610.186 244.048C610.25 243.696 610.282 243.472 610.282 243.376C610.282 242.896 610.106 242.656 609.754 242.656C609.402 242.656 609.05 242.864 608.698 243.28C608.378 243.664 608.058 244.096 607.738 244.576C607.45 245.056 607.162 245.504 606.874 245.92C606.586 246.304 606.33 246.496 606.106 246.496C605.946 246.496 605.866 246.368 605.866 246.112C605.866 245.824 606.362 244.992 607.354 243.616C608.218 242.4 609.002 241.504 609.706 240.928C610.41 240.32 611.13 240.016 611.866 240.016C612.314 240.016 612.682 240.192 612.97 240.544C613.258 240.896 613.402 241.408 613.402 242.08C613.402 242.528 613.306 243.12 613.114 243.856C612.954 244.56 612.714 245.408 612.394 246.4L609.994 254.08C609.642 255.136 609.354 256.048 609.13 256.816C608.938 257.552 608.842 258.176 608.842 258.688C608.842 259.328 608.986 259.824 609.274 260.176C609.594 260.528 609.994 260.704 610.474 260.704C611.082 260.704 611.754 260.4 612.49 259.792C613.258 259.184 614.042 258.272 614.842 257.056C615.642 255.808 616.442 254.256 617.242 252.4C618.074 250.544 618.858 248.352 619.594 245.824L620.794 241.648C620.89 241.296 621.018 241.024 621.178 240.832C621.338 240.64 621.85 240.544 622.714 240.544C623.386 240.544 623.722 240.752 623.722 241.168C623.722 241.36 623.706 241.504 623.674 241.6L621.514 249.184C620.906 251.296 620.426 253.136 620.074 254.704C619.754 256.24 619.594 257.536 619.594 258.592C619.594 260.064 620.154 260.8 621.274 260.8C621.914 260.8 622.746 260.384 623.77 259.552C624.794 258.72 625.85 257.44 626.938 255.712C628.09 253.856 628.938 252.112 629.482 250.48C630.026 248.816 630.298 247.44 630.298 246.352C630.298 245.872 630.234 245.456 630.106 245.104C629.978 244.72 629.834 244.352 629.674 244C629.546 243.648 629.418 243.296 629.29 242.944C629.194 242.592 629.146 242.224 629.146 241.84C629.146 241.2 629.274 240.72 629.53 240.4C629.818 240.048 630.138 239.872 630.49 239.872C631.546 239.872 632.074 241.056 632.074 243.424C632.074 245.12 631.722 247.056 631.018 249.232C630.346 251.408 629.258 253.696 627.754 256.096C626.314 258.432 624.842 260.16 623.338 261.28C621.866 262.4 620.618 262.96 619.594 262.96C617.834 262.96 616.954 261.776 616.954 259.408C616.954 258.768 617.018 257.968 617.146 257.008C617.306 256.048 617.514 254.896 617.77 253.552ZM639.408 247.744L641.952 251.008C642.72 251.968 643.328 252.88 643.776 253.744C644.224 254.576 644.448 255.472 644.448 256.432C644.448 257.296 644.256 258.112 643.872 258.88C643.52 259.648 643.04 260.32 642.432 260.896C641.856 261.472 641.168 261.936 640.368 262.288C639.568 262.64 638.736 262.816 637.872 262.816C637.2 262.816 636.528 262.72 635.856 262.528C635.184 262.368 634.576 262.144 634.032 261.856C633.488 261.568 633.056 261.248 632.736 260.896C632.384 260.544 632.208 260.208 632.208 259.888C632.208 258.864 632.32 258.08 632.544 257.536C632.736 256.96 632.976 256.672 633.264 256.672C633.456 256.672 633.616 256.752 633.744 256.912C633.872 257.04 633.984 257.232 634.08 257.488C634.208 257.712 634.32 257.968 634.416 258.256C634.512 258.512 634.64 258.784 634.8 259.072C635.312 260 635.888 260.688 636.528 261.136C637.168 261.584 637.856 261.808 638.592 261.808C639.488 261.808 640.256 261.44 640.896 260.704C641.536 259.936 641.856 259.008 641.856 257.92C641.856 257.184 641.696 256.512 641.376 255.904C641.088 255.264 640.672 254.608 640.128 253.936L638.112 251.488C637.344 250.56 636.752 249.68 636.336 248.848C635.92 248.016 635.712 247.184 635.712 246.352C635.712 245.552 635.872 244.768 636.192 244C636.544 243.232 636.992 242.56 637.536 241.984C638.112 241.376 638.768 240.896 639.504 240.544C640.24 240.192 641.024 240.016 641.856 240.016C642.464 240.016 643.056 240.08 643.632 240.208C644.24 240.336 644.784 240.512 645.264 240.736C645.744 240.96 646.128 241.232 646.416 241.552C646.704 241.84 646.848 242.16 646.848 242.512C646.848 244.048 646.544 244.816 645.936 244.816C645.68 244.816 645.392 244.64 645.072 244.288C644.752 243.904 644.368 243.488 643.92 243.04C643.504 242.592 643.024 242.192 642.48 241.84C641.968 241.456 641.376 241.264 640.704 241.264C639.968 241.264 639.312 241.568 638.736 242.176C638.192 242.752 637.92 243.488 637.92 244.384C637.92 244.96 638.048 245.52 638.304 246.064C638.56 246.576 638.928 247.136 639.408 247.744ZM666.641 229.264L661.025 250.96C662.913 247.28 664.641 244.544 666.209 242.752C667.809 240.928 669.377 240.016 670.913 240.016C672.097 240.016 673.057 240.544 673.793 241.6C674.561 242.656 674.945 244.128 674.945 246.016C674.945 247.776 674.641 249.68 674.033 251.728C673.425 253.776 672.561 255.632 671.441 257.296C670.225 259.152 668.817 260.56 667.217 261.52C665.617 262.48 663.953 262.96 662.225 262.96C660.721 262.96 659.521 262.464 658.625 261.472C657.729 260.448 657.281 259.024 657.281 257.2C657.281 256.208 657.425 255.008 657.713 253.6C658.001 252.192 658.401 250.528 658.913 248.608L662.849 233.536C663.073 232.736 663.185 232.112 663.185 231.664C663.185 231.44 663.089 231.248 662.897 231.088C662.705 230.896 662.433 230.8 662.081 230.8C661.985 230.8 661.889 230.816 661.793 230.848C661.729 230.848 661.649 230.848 661.553 230.848C661.073 230.848 660.833 230.688 660.833 230.368C660.833 229.952 661.169 229.744 661.841 229.744C662.609 229.744 663.249 229.68 663.761 229.552C664.305 229.392 664.753 229.232 665.105 229.072C665.457 228.88 665.729 228.72 665.921 228.592C666.145 228.432 666.337 228.352 666.497 228.352C666.657 228.352 666.737 228.48 666.737 228.736C666.737 228.768 666.721 228.832 666.689 228.928C666.689 228.992 666.673 229.104 666.641 229.264ZM672.017 245.536C672.017 244.48 671.809 243.68 671.393 243.136C671.009 242.56 670.513 242.272 669.905 242.272C668.913 242.272 667.889 242.8 666.833 243.856C665.809 244.912 664.641 246.496 663.329 248.608C661.953 250.816 660.945 252.768 660.305 254.464C659.665 256.128 659.345 257.504 659.345 258.592C659.345 260.864 660.305 262 662.225 262C663.345 262 664.449 261.584 665.537 260.752C666.625 259.888 667.649 258.592 668.609 256.864C669.185 255.808 669.681 254.752 670.097 253.696C670.545 252.608 670.913 251.568 671.201 250.576C671.489 249.584 671.697 248.656 671.825 247.792C671.953 246.928 672.017 246.176 672.017 245.536ZM680.227 251.776C683.587 251.616 686.147 250.784 687.907 249.28C689.699 247.776 690.595 245.92 690.595 243.712C690.595 242.816 690.371 242.096 689.923 241.552C689.507 241.008 688.931 240.736 688.195 240.736C687.459 240.736 686.707 240.976 685.939 241.456C685.203 241.936 684.483 242.656 683.779 243.616C683.075 244.544 682.403 245.696 681.763 247.072C681.155 248.448 680.643 250.016 680.227 251.776ZM680.131 252.928C680.035 253.952 679.987 254.64 679.987 254.992C679.987 256.784 680.371 258.16 681.139 259.12C681.939 260.08 682.963 260.56 684.211 260.56C685.939 260.56 687.619 259.584 689.251 257.632C689.731 257.056 690.035 256.576 690.163 256.192C690.291 255.808 690.499 255.616 690.787 255.616C690.979 255.616 691.075 255.776 691.075 256.096C691.075 256.352 690.947 256.72 690.691 257.2C690.467 257.68 690.099 258.256 689.587 258.928C687.507 261.616 685.347 262.96 683.107 262.96C682.243 262.96 681.427 262.752 680.659 262.336C679.923 261.952 679.267 261.408 678.691 260.704C678.147 259.968 677.715 259.088 677.395 258.064C677.075 257.04 676.915 255.904 676.915 254.656C676.915 252.896 677.251 251.136 677.923 249.376C678.595 247.584 679.587 245.888 680.899 244.288C682.115 242.784 683.379 241.664 684.691 240.928C686.035 240.192 687.315 239.824 688.531 239.824C689.971 239.824 691.139 240.272 692.035 241.168C692.931 242.064 693.379 243.216 693.379 244.624C693.379 246.992 692.259 248.88 690.019 250.288C687.811 251.696 684.515 252.576 680.131 252.928ZM702.217 240.88H705.769C705.961 240.88 706.057 240.976 706.057 241.168C706.057 241.808 705.865 242.128 705.481 242.128H701.881L699.145 255.04C698.505 257.952 697.897 260.528 697.321 262.768C696.777 265.008 696.153 266.896 695.449 268.432C694.745 269.968 693.945 271.12 693.049 271.888C692.121 272.688 690.985 273.088 689.641 273.088C688.713 273.088 687.961 272.832 687.385 272.32C686.809 271.84 686.521 271.216 686.521 270.448C686.521 269.808 686.665 269.312 686.953 268.96C687.241 268.608 687.625 268.432 688.105 268.432C688.489 268.432 688.841 268.544 689.161 268.768C689.449 269.024 689.625 269.312 689.689 269.632C689.753 269.984 689.785 270.32 689.785 270.64C689.785 270.96 689.817 271.232 689.881 271.456C689.913 271.68 689.993 271.856 690.121 271.984C690.249 272.112 690.489 272.176 690.841 272.176C691.481 272.176 692.073 271.52 692.617 270.208C693.161 268.896 693.737 266.88 694.345 264.16L699.193 242.128H696.745C696.521 242.128 696.409 242.032 696.409 241.84C696.409 241.2 696.601 240.88 696.985 240.88H699.481C699.833 238.864 700.313 237.104 700.921 235.6C701.561 234.096 702.265 232.832 703.033 231.808C703.833 230.784 704.681 230.016 705.577 229.504C706.505 228.992 707.417 228.736 708.313 228.736C709.241 228.736 709.945 228.992 710.425 229.504C710.937 229.984 711.193 230.64 711.193 231.472C711.193 232.016 711.049 232.464 710.761 232.816C710.473 233.168 710.105 233.344 709.657 233.344C708.921 233.344 708.409 232.864 708.121 231.904C707.961 231.392 707.817 230.944 707.689 230.56C707.561 230.176 707.257 229.984 706.777 229.984C705.305 229.984 703.785 233.616 702.217 240.88ZM716.268 240.016C717.324 240.016 718.3 240.24 719.196 240.688C720.124 241.104 720.908 241.728 721.548 242.56C722.22 243.36 722.748 244.336 723.132 245.488C723.516 246.64 723.708 247.936 723.708 249.376C723.708 251.2 723.372 252.928 722.7 254.56C722.028 256.192 721.148 257.632 720.06 258.88C719.004 260.096 717.788 261.056 716.412 261.76C715.068 262.464 713.724 262.816 712.38 262.816C711.356 262.816 710.396 262.592 709.5 262.144C708.604 261.728 707.82 261.12 707.148 260.32C706.508 259.52 705.996 258.56 705.612 257.44C705.228 256.288 705.036 255.024 705.036 253.648C705.036 251.696 705.372 249.888 706.044 248.224C706.716 246.528 707.596 245.088 708.684 243.904C709.772 242.688 710.972 241.744 712.284 241.072C713.628 240.368 714.956 240.016 716.268 240.016ZM720.732 247.216C720.732 245.232 720.364 243.728 719.628 242.704C718.892 241.68 717.852 241.168 716.508 241.168C715.548 241.168 714.556 241.52 713.532 242.224C712.508 242.896 711.596 243.904 710.796 245.248C709.868 246.816 709.164 248.448 708.684 250.144C708.204 251.84 707.964 253.488 707.964 255.088C707.964 257.168 708.348 258.768 709.116 259.888C709.916 261.008 710.972 261.568 712.284 261.568C713.276 261.568 714.268 261.2 715.26 260.464C716.284 259.696 717.196 258.672 717.996 257.392C718.796 256.08 719.452 254.56 719.964 252.832C720.476 251.072 720.732 249.2 720.732 247.216ZM733.34 246.64L731.516 253.6C733.34 249.12 734.972 245.776 736.412 243.568C737.884 241.36 739.292 240.256 740.636 240.256C741.18 240.256 741.644 240.48 742.028 240.928C742.444 241.344 742.652 241.92 742.652 242.656C742.652 243.456 742.46 244.112 742.076 244.624C741.692 245.136 741.26 245.392 740.78 245.392C740.396 245.392 740.076 245.28 739.82 245.056C739.596 244.8 739.484 244.448 739.484 244C739.484 243.648 739.404 243.376 739.244 243.184C739.084 242.96 738.908 242.848 738.716 242.848C738.172 242.848 737.164 244.096 735.692 246.592C734.252 249.088 732.556 252.864 730.604 257.92C730.252 258.848 729.98 259.584 729.788 260.128C729.628 260.672 729.468 261.088 729.308 261.376C729.18 261.664 729.02 261.856 728.828 261.952C728.636 262.016 728.332 262.048 727.916 262.048C727.148 262.048 726.764 261.856 726.764 261.472C726.764 261.408 726.812 261.2 726.908 260.848L730.46 247.312C730.684 246.448 730.86 245.696 730.988 245.056C731.116 244.416 731.18 243.872 731.18 243.424C731.18 242.816 730.94 242.512 730.46 242.512C730.044 242.512 729.628 242.736 729.212 243.184C728.796 243.632 728.396 244.128 728.012 244.672C727.66 245.184 727.324 245.664 727.004 246.112C726.716 246.528 726.508 246.736 726.38 246.736C726.156 246.736 726.044 246.576 726.044 246.256C726.044 246.128 726.204 245.776 726.524 245.2C726.844 244.624 727.372 243.904 728.108 243.04C729.836 240.992 731.292 239.968 732.476 239.968C732.956 239.968 733.34 240.16 733.628 240.544C733.916 240.896 734.06 241.44 734.06 242.176C734.06 242.432 734.012 242.96 733.916 243.76C733.82 244.56 733.628 245.52 733.34 246.64ZM745.477 251.776C748.837 251.616 751.397 250.784 753.157 249.28C754.949 247.776 755.845 245.92 755.845 243.712C755.845 242.816 755.621 242.096 755.173 241.552C754.757 241.008 754.181 240.736 753.445 240.736C752.709 240.736 751.957 240.976 751.189 241.456C750.453 241.936 749.733 242.656 749.029 243.616C748.325 244.544 747.653 245.696 747.013 247.072C746.405 248.448 745.893 250.016 745.477 251.776ZM745.381 252.928C745.285 253.952 745.237 254.64 745.237 254.992C745.237 256.784 745.621 258.16 746.389 259.12C747.189 260.08 748.213 260.56 749.461 260.56C751.189 260.56 752.869 259.584 754.501 257.632C754.981 257.056 755.285 256.576 755.413 256.192C755.541 255.808 755.749 255.616 756.037 255.616C756.229 255.616 756.325 255.776 756.325 256.096C756.325 256.352 756.197 256.72 755.941 257.2C755.717 257.68 755.349 258.256 754.837 258.928C752.757 261.616 750.597 262.96 748.357 262.96C747.493 262.96 746.677 262.752 745.909 262.336C745.173 261.952 744.517 261.408 743.941 260.704C743.397 259.968 742.965 259.088 742.645 258.064C742.325 257.04 742.165 255.904 742.165 254.656C742.165 252.896 742.501 251.136 743.173 249.376C743.845 247.584 744.837 245.888 746.149 244.288C747.365 242.784 748.629 241.664 749.941 240.928C751.285 240.192 752.565 239.824 753.781 239.824C755.221 239.824 756.389 240.272 757.285 241.168C758.181 242.064 758.629 243.216 758.629 244.624C758.629 246.992 757.509 248.88 755.269 250.288C753.061 251.696 749.765 252.576 745.381 252.928ZM776.98 234.64C776.98 233.872 777.204 233.168 777.652 232.528C778.132 231.856 778.66 231.52 779.236 231.52C779.652 231.52 779.988 231.68 780.244 232C780.5 232.32 780.628 232.736 780.628 233.248C780.628 234.176 780.404 234.976 779.956 235.648C779.508 236.32 778.996 236.656 778.42 236.656C777.972 236.656 777.62 236.48 777.364 236.128C777.108 235.776 776.98 235.28 776.98 234.64ZM777.028 246.784L773.62 257.44C773.332 258.4 773.188 259.024 773.188 259.312C773.188 259.984 773.412 260.32 773.86 260.32C774.66 260.32 775.524 259.504 776.452 257.872C776.964 257.008 777.3 256.384 777.46 256C777.652 255.584 777.812 255.376 777.94 255.376C778.164 255.376 778.276 255.488 778.276 255.712C778.276 256.256 777.636 257.504 776.356 259.456C775.62 260.576 774.884 261.424 774.148 262C773.412 262.544 772.724 262.816 772.084 262.816C770.804 262.816 770.164 262.016 770.164 260.416C770.164 259.584 770.34 258.56 770.692 257.344C771.044 256.096 771.524 254.608 772.132 252.88L774.1 247.12C774.388 246.256 774.628 245.52 774.82 244.912C775.012 244.272 775.108 243.728 775.108 243.28C775.108 242.928 775.06 242.672 774.964 242.512C774.9 242.352 774.724 242.272 774.436 242.272C774.052 242.272 773.668 242.48 773.284 242.896C772.9 243.28 772.532 243.728 772.18 244.24C771.86 244.72 771.556 245.168 771.268 245.584C771.012 245.968 770.82 246.16 770.692 246.16C770.532 246.16 770.452 246.016 770.452 245.728C770.452 245.6 770.58 245.296 770.836 244.816C771.092 244.336 771.508 243.728 772.084 242.992C773.716 240.944 775.156 239.92 776.404 239.92C776.948 239.92 777.38 240.096 777.7 240.448C778.02 240.8 778.18 241.296 778.18 241.936C778.18 242.608 778.068 243.344 777.844 244.144C777.62 244.944 777.348 245.824 777.028 246.784ZM790.184 236.848L789.032 240.88H792.536C792.76 240.88 792.872 240.976 792.872 241.168C792.872 241.744 792.68 242.032 792.296 242.032H788.792L786.2 251.776C785.72 253.6 785.336 255.088 785.048 256.24C784.76 257.36 784.616 258.16 784.616 258.64C784.616 258.96 784.68 259.216 784.808 259.408C784.968 259.6 785.128 259.696 785.288 259.696C785.736 259.696 786.504 258.864 787.592 257.2C788.04 256.528 788.312 256.016 788.408 255.664C788.536 255.28 788.712 255.088 788.936 255.088C789.192 255.088 789.32 255.248 789.32 255.568C789.32 256.048 788.776 257.088 787.688 258.688C786.856 259.936 786.04 260.88 785.24 261.52C784.44 262.16 783.768 262.48 783.224 262.48C782.744 262.48 782.344 262.272 782.024 261.856C781.736 261.408 781.592 260.8 781.592 260.032C781.592 258.464 782.2 255.536 783.416 251.248L786.008 242.032H783.08C782.984 242.032 782.904 242 782.84 241.936C782.776 241.872 782.744 241.808 782.744 241.744C782.744 241.168 782.936 240.88 783.32 240.88H786.344L787.544 236.368C787.672 235.92 787.864 235.632 788.12 235.504C788.408 235.376 788.856 235.312 789.464 235.312C790.104 235.312 790.424 235.472 790.424 235.792C790.424 235.92 790.344 236.272 790.184 236.848ZM807.83 247.744L810.374 251.008C811.142 251.968 811.75 252.88 812.198 253.744C812.646 254.576 812.87 255.472 812.87 256.432C812.87 257.296 812.678 258.112 812.294 258.88C811.942 259.648 811.462 260.32 810.854 260.896C810.278 261.472 809.59 261.936 808.79 262.288C807.99 262.64 807.158 262.816 806.294 262.816C805.622 262.816 804.95 262.72 804.278 262.528C803.606 262.368 802.998 262.144 802.454 261.856C801.91 261.568 801.478 261.248 801.158 260.896C800.806 260.544 800.63 260.208 800.63 259.888C800.63 258.864 800.742 258.08 800.966 257.536C801.158 256.96 801.398 256.672 801.686 256.672C801.878 256.672 802.038 256.752 802.166 256.912C802.294 257.04 802.406 257.232 802.502 257.488C802.63 257.712 802.742 257.968 802.838 258.256C802.934 258.512 803.062 258.784 803.222 259.072C803.734 260 804.31 260.688 804.95 261.136C805.59 261.584 806.278 261.808 807.014 261.808C807.91 261.808 808.678 261.44 809.318 260.704C809.958 259.936 810.278 259.008 810.278 257.92C810.278 257.184 810.118 256.512 809.798 255.904C809.51 255.264 809.094 254.608 808.55 253.936L806.534 251.488C805.766 250.56 805.174 249.68 804.758 248.848C804.342 248.016 804.134 247.184 804.134 246.352C804.134 245.552 804.294 244.768 804.614 244C804.966 243.232 805.414 242.56 805.958 241.984C806.534 241.376 807.19 240.896 807.926 240.544C808.662 240.192 809.446 240.016 810.278 240.016C810.886 240.016 811.478 240.08 812.054 240.208C812.662 240.336 813.206 240.512 813.686 240.736C814.166 240.96 814.55 241.232 814.838 241.552C815.126 241.84 815.27 242.16 815.27 242.512C815.27 244.048 814.966 244.816 814.358 244.816C814.102 244.816 813.814 244.64 813.494 244.288C813.174 243.904 812.79 243.488 812.342 243.04C811.926 242.592 811.446 242.192 810.902 241.84C810.39 241.456 809.798 241.264 809.126 241.264C808.39 241.264 807.734 241.568 807.158 242.176C806.614 242.752 806.342 243.488 806.342 244.384C806.342 244.96 806.47 245.52 806.726 246.064C806.982 246.576 807.35 247.136 807.83 247.744ZM824.59 236.848L823.726 240.496C824.366 240.336 824.974 240.224 825.55 240.16C826.158 240.064 826.734 240.016 827.278 240.016C829.486 240.016 831.182 240.656 832.366 241.936C833.582 243.216 834.19 245.056 834.19 247.456C834.19 249.28 833.854 251.12 833.182 252.976C832.542 254.832 831.598 256.576 830.35 258.208C827.982 261.248 825.55 262.768 823.054 262.768C822.222 262.768 821.47 262.592 820.798 262.24C820.158 261.92 819.518 261.408 818.878 260.704L817.198 268.96C817.134 269.28 817.102 269.552 817.102 269.776C817.102 270.256 817.246 270.592 817.534 270.784C817.822 271.008 818.142 271.168 818.494 271.264C818.878 271.392 819.214 271.488 819.502 271.552C819.79 271.648 819.934 271.808 819.934 272.032C819.934 272.384 819.758 272.56 819.406 272.56C819.054 272.56 818.462 272.496 817.63 272.368C816.798 272.272 815.742 272.224 814.462 272.224C813.566 272.224 812.83 272.272 812.254 272.368C811.678 272.496 811.23 272.56 810.91 272.56C810.366 272.56 810.094 272.432 810.094 272.176C810.094 271.824 810.302 271.616 810.718 271.552C811.102 271.488 811.63 271.328 812.302 271.072C812.686 270.912 812.99 270.752 813.214 270.592C813.406 270.464 813.566 270.288 813.694 270.064C813.822 269.872 813.934 269.616 814.03 269.296C814.094 268.976 814.19 268.56 814.318 268.048L820.462 242.704C819.726 243.088 819.15 243.408 818.734 243.664C818.318 243.888 818.03 244 817.87 244C817.614 244 817.486 243.92 817.486 243.76C817.486 243.344 817.758 242.976 818.302 242.656C818.846 242.304 819.678 241.904 820.798 241.456L821.854 236.848C821.95 236.464 822.062 236.224 822.19 236.128C822.318 236.032 822.542 235.984 822.862 235.984H823.486C823.934 235.984 824.238 236 824.398 236.032C824.59 236.032 824.686 236.112 824.686 236.272C824.686 236.272 824.686 236.336 824.686 236.464C824.686 236.56 824.654 236.688 824.59 236.848ZM820.414 254.08C820.19 254.976 820.014 255.76 819.886 256.432C819.758 257.104 819.694 257.712 819.694 258.256C819.694 259.28 819.95 260.08 820.462 260.656C821.006 261.232 821.726 261.52 822.622 261.52C824.894 261.52 826.782 260.064 828.286 257.152C829.374 255.072 830.174 253.104 830.686 251.248C831.198 249.36 831.454 247.776 831.454 246.496C831.454 244.832 831.022 243.552 830.158 242.656C829.294 241.76 828.046 241.312 826.414 241.312C825.646 241.312 824.654 241.488 823.438 241.84L820.414 254.08ZM847.33 240.016C848.386 240.016 849.362 240.24 850.258 240.688C851.186 241.104 851.97 241.728 852.61 242.56C853.282 243.36 853.81 244.336 854.194 245.488C854.578 246.64 854.77 247.936 854.77 249.376C854.77 251.2 854.434 252.928 853.762 254.56C853.09 256.192 852.21 257.632 851.122 258.88C850.066 260.096 848.85 261.056 847.474 261.76C846.13 262.464 844.786 262.816 843.442 262.816C842.418 262.816 841.458 262.592 840.562 262.144C839.666 261.728 838.882 261.12 838.21 260.32C837.57 259.52 837.058 258.56 836.674 257.44C836.29 256.288 836.098 255.024 836.098 253.648C836.098 251.696 836.434 249.888 837.106 248.224C837.778 246.528 838.658 245.088 839.746 243.904C840.834 242.688 842.034 241.744 843.346 241.072C844.69 240.368 846.018 240.016 847.33 240.016ZM851.794 247.216C851.794 245.232 851.426 243.728 850.69 242.704C849.954 241.68 848.914 241.168 847.57 241.168C846.61 241.168 845.618 241.52 844.594 242.224C843.57 242.896 842.658 243.904 841.858 245.248C840.93 246.816 840.226 248.448 839.746 250.144C839.266 251.84 839.026 253.488 839.026 255.088C839.026 257.168 839.41 258.768 840.178 259.888C840.978 261.008 842.034 261.568 843.346 261.568C844.338 261.568 845.33 261.2 846.322 260.464C847.346 259.696 848.258 258.672 849.058 257.392C849.858 256.08 850.514 254.56 851.026 252.832C851.538 251.072 851.794 249.2 851.794 247.216ZM865.746 236.848L864.594 240.88H868.098C868.322 240.88 868.434 240.976 868.434 241.168C868.434 241.744 868.242 242.032 867.858 242.032H864.354L861.762 251.776C861.282 253.6 860.898 255.088 860.61 256.24C860.322 257.36 860.178 258.16 860.178 258.64C860.178 258.96 860.242 259.216 860.37 259.408C860.53 259.6 860.69 259.696 860.85 259.696C861.298 259.696 862.066 258.864 863.154 257.2C863.602 256.528 863.874 256.016 863.97 255.664C864.098 255.28 864.274 255.088 864.498 255.088C864.754 255.088 864.882 255.248 864.882 255.568C864.882 256.048 864.338 257.088 863.25 258.688C862.418 259.936 861.602 260.88 860.802 261.52C860.002 262.16 859.33 262.48 858.786 262.48C858.306 262.48 857.906 262.272 857.586 261.856C857.298 261.408 857.154 260.8 857.154 260.032C857.154 258.464 857.762 255.536 858.978 251.248L861.57 242.032H858.642C858.546 242.032 858.466 242 858.402 241.936C858.338 241.872 858.306 241.808 858.306 241.744C858.306 241.168 858.498 240.88 858.882 240.88H861.906L863.106 236.368C863.234 235.92 863.426 235.632 863.682 235.504C863.97 235.376 864.418 235.312 865.026 235.312C865.666 235.312 865.986 235.472 865.986 235.792C865.986 235.92 865.906 236.272 865.746 236.848ZM873.783 247.744L876.327 251.008C877.095 251.968 877.703 252.88 878.151 253.744C878.599 254.576 878.823 255.472 878.823 256.432C878.823 257.296 878.631 258.112 878.247 258.88C877.895 259.648 877.415 260.32 876.807 260.896C876.231 261.472 875.543 261.936 874.743 262.288C873.943 262.64 873.111 262.816 872.247 262.816C871.575 262.816 870.903 262.72 870.231 262.528C869.559 262.368 868.951 262.144 868.407 261.856C867.863 261.568 867.431 261.248 867.111 260.896C866.759 260.544 866.583 260.208 866.583 259.888C866.583 258.864 866.695 258.08 866.919 257.536C867.111 256.96 867.351 256.672 867.639 256.672C867.831 256.672 867.991 256.752 868.119 256.912C868.247 257.04 868.359 257.232 868.455 257.488C868.583 257.712 868.695 257.968 868.791 258.256C868.887 258.512 869.015 258.784 869.175 259.072C869.687 260 870.263 260.688 870.903 261.136C871.543 261.584 872.231 261.808 872.967 261.808C873.863 261.808 874.631 261.44 875.271 260.704C875.911 259.936 876.231 259.008 876.231 257.92C876.231 257.184 876.071 256.512 875.751 255.904C875.463 255.264 875.047 254.608 874.503 253.936L872.487 251.488C871.719 250.56 871.127 249.68 870.711 248.848C870.295 248.016 870.087 247.184 870.087 246.352C870.087 245.552 870.247 244.768 870.567 244C870.919 243.232 871.367 242.56 871.911 241.984C872.487 241.376 873.143 240.896 873.879 240.544C874.615 240.192 875.399 240.016 876.231 240.016C876.839 240.016 877.431 240.08 878.007 240.208C878.615 240.336 879.159 240.512 879.639 240.736C880.119 240.96 880.503 241.232 880.791 241.552C881.079 241.84 881.223 242.16 881.223 242.512C881.223 244.048 880.919 244.816 880.311 244.816C880.055 244.816 879.767 244.64 879.447 244.288C879.127 243.904 878.743 243.488 878.295 243.04C877.879 242.592 877.399 242.192 876.855 241.84C876.343 241.456 875.751 241.264 875.079 241.264C874.343 241.264 873.687 241.568 873.111 242.176C872.567 242.752 872.295 243.488 872.295 244.384C872.295 244.96 872.423 245.52 872.679 246.064C872.935 246.576 873.303 247.136 873.783 247.744ZM895.928 264.88C896.024 263.632 896.104 262.432 896.168 261.28C896.232 260.128 896.264 259.024 896.264 257.968C896.264 252.592 896.12 248.64 895.832 246.112C895.544 243.584 895.016 242.32 894.248 242.32C893.768 242.32 893.144 243.12 892.376 244.72C892.12 245.264 891.944 245.712 891.848 246.064C891.784 246.416 891.608 246.592 891.32 246.592C891.096 246.592 890.984 246.432 890.984 246.112C890.984 245.76 891.112 245.248 891.368 244.576C891.656 243.904 892.008 243.248 892.424 242.608C892.872 241.936 893.368 241.36 893.912 240.88C894.488 240.4 895.048 240.16 895.592 240.16C896.872 240.16 897.784 241.424 898.328 243.952C898.872 246.448 899.144 250.256 899.144 255.376C899.144 256.208 899.144 257.104 899.144 258.064C899.144 259.024 899.128 260.032 899.096 261.088C901.304 257.664 902.936 254.704 903.992 252.208C905.048 249.712 905.576 247.728 905.576 246.256C905.576 245.392 905.416 244.608 905.096 243.904C904.808 243.168 904.664 242.48 904.664 241.84C904.664 241.264 904.808 240.8 905.096 240.448C905.384 240.096 905.72 239.92 906.104 239.92C906.616 239.92 907.016 240.192 907.304 240.736C907.592 241.248 907.736 241.968 907.736 242.896C907.736 244.88 907.144 247.312 905.96 250.192C904.776 253.072 902.984 256.464 900.584 260.368C897.992 264.624 895.8 267.776 894.008 269.824C892.216 271.904 890.664 272.944 889.352 272.944C888.52 272.944 887.832 272.688 887.288 272.176C886.712 271.696 886.424 271.136 886.424 270.496C886.424 270.048 886.552 269.696 886.808 269.44C887.032 269.184 887.32 269.056 887.672 269.056C888.056 269.056 888.392 269.184 888.68 269.44C888.968 269.696 889.224 269.968 889.448 270.256C889.672 270.544 889.88 270.816 890.072 271.072C890.264 271.328 890.456 271.456 890.648 271.456C890.872 271.456 891.208 271.312 891.656 271.024C892.104 270.768 892.584 270.352 893.096 269.776C893.608 269.232 894.12 268.544 894.632 267.712C895.144 266.912 895.576 265.968 895.928 264.88ZM920.174 240.016C921.23 240.016 922.206 240.24 923.102 240.688C924.03 241.104 924.814 241.728 925.454 242.56C926.126 243.36 926.654 244.336 927.038 245.488C927.422 246.64 927.614 247.936 927.614 249.376C927.614 251.2 927.278 252.928 926.606 254.56C925.934 256.192 925.054 257.632 923.966 258.88C922.91 260.096 921.694 261.056 920.318 261.76C918.974 262.464 917.63 262.816 916.286 262.816C915.262 262.816 914.302 262.592 913.406 262.144C912.51 261.728 911.726 261.12 911.054 260.32C910.414 259.52 909.902 258.56 909.518 257.44C909.134 256.288 908.942 255.024 908.942 253.648C908.942 251.696 909.278 249.888 909.95 248.224C910.622 246.528 911.502 245.088 912.59 243.904C913.678 242.688 914.878 241.744 916.19 241.072C917.534 240.368 918.862 240.016 920.174 240.016ZM924.638 247.216C924.638 245.232 924.27 243.728 923.534 242.704C922.798 241.68 921.758 241.168 920.414 241.168C919.454 241.168 918.462 241.52 917.438 242.224C916.414 242.896 915.502 243.904 914.702 245.248C913.774 246.816 913.07 248.448 912.59 250.144C912.11 251.84 911.87 253.488 911.87 255.088C911.87 257.168 912.254 258.768 913.022 259.888C913.822 261.008 914.878 261.568 916.19 261.568C917.182 261.568 918.174 261.2 919.166 260.464C920.19 259.696 921.102 258.672 921.902 257.392C922.702 256.08 923.358 254.56 923.87 252.832C924.382 251.072 924.638 249.2 924.638 247.216ZM936.19 251.392L934.222 257.152C933.87 258.272 933.694 259.024 933.694 259.408C933.694 260.432 934.158 260.944 935.086 260.944C935.502 260.944 936.078 260.688 936.814 260.176C937.582 259.632 938.398 258.88 939.262 257.92C940.158 256.928 941.07 255.744 941.998 254.368C942.926 252.96 943.806 251.392 944.638 249.664C945.31 248.192 945.838 246.896 946.222 245.776C946.606 244.624 946.91 243.664 947.134 242.896C947.358 242.128 947.55 241.552 947.71 241.168C947.87 240.752 948.094 240.544 948.382 240.544H950.254C950.382 240.544 950.494 240.592 950.59 240.688C950.718 240.784 950.782 240.88 950.782 240.976C950.782 241.04 950.75 241.2 950.686 241.456L947.23 252.976C946.27 256.144 945.79 258.24 945.79 259.264C945.79 259.936 946.014 260.272 946.462 260.272C946.942 260.272 947.39 260.048 947.806 259.6C948.254 259.152 948.67 258.672 949.054 258.16C949.438 257.616 949.774 257.12 950.062 256.672C950.382 256.224 950.638 256 950.83 256C950.894 256 950.958 256.048 951.022 256.144C951.086 256.24 951.118 256.352 951.118 256.48C951.118 256.576 950.958 256.912 950.638 257.488C950.318 258.064 949.806 258.768 949.102 259.6C947.278 261.776 945.726 262.864 944.446 262.864C943.358 262.864 942.814 262.112 942.814 260.608C942.814 260.288 942.862 259.744 942.958 258.976C943.086 258.208 943.31 257.232 943.63 256.048L944.878 251.392C942.734 255.2 940.718 258.048 938.83 259.936C936.942 261.792 935.198 262.72 933.598 262.72C932.67 262.72 931.95 262.48 931.438 262C930.926 261.488 930.67 260.832 930.67 260.032C930.67 259.072 930.974 257.696 931.582 255.904L935.326 244.768C935.486 244.288 935.566 243.936 935.566 243.712C935.566 243.008 935.342 242.656 934.894 242.656C934.414 242.656 933.95 242.864 933.502 243.28C933.086 243.696 932.702 244.16 932.35 244.672C932.03 245.152 931.742 245.6 931.486 246.016C931.23 246.432 931.022 246.64 930.862 246.64C930.638 246.64 930.526 246.512 930.526 246.256C930.526 245.808 931.022 244.896 932.014 243.52C933.742 241.184 935.31 240.016 936.718 240.016C937.262 240.016 937.678 240.208 937.966 240.592C938.286 240.944 938.446 241.456 938.446 242.128C938.446 243.92 937.694 247.008 936.19 251.392ZM953.386 260.656C953.386 259.92 953.562 259.312 953.914 258.832C954.298 258.32 954.746 258.064 955.258 258.064C956.154 258.064 956.602 258.688 956.602 259.936C956.602 260.576 956.41 261.168 956.026 261.712C955.674 262.256 955.242 262.528 954.73 262.528C953.834 262.528 953.386 261.904 953.386 260.656Z"
        fill="black" />
    <g filter="url(#filter0_f_49_445)">
        <path
            d="M313.138 219.935C302.883 120.337 140.783 148.546 61.0151 175.1C59.8132 175.1 56.0207 175.74 50.4654 178.302C43.5213 181.505 53.8039 206.725 50.4654 231.544C47.1269 256.364 123.111 272.11 157.564 289.857C192.018 307.604 325.958 344.433 313.138 219.935Z"
            fill="white" fill-opacity="0.8" />
    </g>
    <g filter="url(#filter1_f_49_445)">
        <path
            d="M1253.24 212.018C1244.18 123.695 1100.97 148.71 1030.5 172.258C1029.44 172.258 1026.09 172.826 1021.18 175.098C1015.04 177.938 1024.13 200.303 1021.18 222.313C1018.23 244.323 1085.36 258.286 1115.8 274.024C1146.23 289.762 1264.56 322.422 1253.24 212.018Z"
            fill="white" fill-opacity="0.89" />
    </g>
    <defs>
        <filter id="filter0_f_49_445" x="0.799999" y="102.8" width="360.4" height="253.4"
            filterUnits="userSpaceOnUse" color-interpolation-filters="sRGB">
            <feFlood flood-opacity="0" result="BackgroundImageFix" />
            <feBlend mode="normal" in="SourceGraphic" in2="BackgroundImageFix" result="shape" />
            <feGaussianBlur stdDeviation="23.6" result="effect1_foregroundBlur_49_445" />
        </filter>
        <filter id="filter1_f_49_445" x="971.8" y="102.8" width="329.4" height="235.4"
            filterUnits="userSpaceOnUse" color-interpolation-filters="sRGB">
            <feFlood flood-opacity="0" result="BackgroundImageFix" />
            <feBlend mode="normal" in="SourceGraphic" in2="BackgroundImageFix" result="shape" />
            <feGaussianBlur stdDeviation="23.6" result="effect1_foregroundBlur_49_445" />
        </filter>
    </defs>
</svg>